<svg width="22" height="21" viewBox="0 0 22 21" fill="none" xmlns="http://www.w3.org/2000/svg">
<path d="M4.50001 11.4L0.600006 7.5L4.50001 3.6L8.40001 7.5L4.50001 11.4ZM8.00001 21V16C6.98334 15.9167 5.97501 15.7957 4.97501 15.637C3.97501 15.4783 2.98334 15.266 2.00001 15L2.50001 13C3.90001 13.3833 5.30434 13.646 6.71301 13.788C8.12167 13.93 9.55067 14.0007 11 14C12.45 14 13.8793 13.929 15.288 13.787C16.6967 13.645 18.1007 13.3827 19.5 13L20 15C19.0167 15.2667 18.025 15.4793 17.025 15.638C16.025 15.7967 15.0167 15.9173 14 16V21H8.00001ZM11 6C10.1667 6 9.45834 5.70833 8.87501 5.125C8.29167 4.54167 8.00001 3.83333 8.00001 3C8.00001 2.16667 8.29167 1.45833 8.87501 0.875C9.45834 0.291667 10.1667 0 11 0C11.8333 0 12.5417 0.291667 13.125 0.875C13.7083 1.45833 14 2.16667 14 3C14 3.83333 13.7083 4.54167 13.125 5.125C12.5417 5.70833 11.8333 6 11 6ZM11 13C10.45 13 9.97934 12.8043 9.58801 12.413C9.19667 12.0217 9.00067 11.5507 9.00001 11C9.00001 10.45 9.19601 9.97933 9.58801 9.588C9.98001 9.19667 10.4507 9.00067 11 9C11.55 9 12.021 9.196 12.413 9.588C12.805 9.98 13.0007 10.4507 13 11C13 11.55 12.8043 12.021 12.413 12.413C12.0217 12.805 11.5507 13.0007 11 13ZM16.05 11L14.35 8L16.05 5H19.45L21.15 8L19.45 11H16.05Z" fill="white"/>
</svg>
